<svg id="Layer_1" data-name="Layer 1" xmlns="http://www.w3.org/2000/svg" viewBox="0 0 512 512.01"><path d="M426.67,170.67a85.34,85.34,0,1,0-85.33-85.34A85.33,85.33,0,0,0,426.67,170.67Zm0-128A42.67,42.67,0,1,1,384,85.33,42.66,42.66,0,0,1,426.67,42.67Z" transform="translate(0)" style="fill:#ed2726"/><path d="M256,128A128,128,0,1,0,128,256,128,128,0,0,0,256,128ZM42.67,128A85.34,85.34,0,1,1,128,213.33,85.34,85.34,0,0,1,42.67,128Z" transform="translate(0)" style="fill:#ed2726"/><path d="M503.68,473.76,403.13,396.41l39.33-107.57a86.77,86.77,0,0,0,4.79-42.26l55.25-36.83a21.33,21.33,0,0,0-23.66-35.5l-48,32a87.58,87.58,0,0,0-151.11,17.88L255,282.49l-28.7-22.07a21.33,21.33,0,0,0-26,33.82l8.73,6.71-75.5-12.75A21.32,21.32,0,0,0,109.93,302L68.35,417.53a70.16,70.16,0,0,0,129.91,52.82l15.61-35.06L359.21,464a21.32,21.32,0,0,0,24.17-13.6l4.39-12,89.89,69.14a21.33,21.33,0,1,0,26-33.81ZM319,240.75A44.91,44.91,0,0,1,402.45,274l-34.78,95.11L290,309.38Zm30.54,177.88-144.14-28.5a21.32,21.32,0,0,0-23.63,12.25L159.28,453a27.49,27.49,0,0,1-50.87-20.8l35.63-99,110.15,18.62a21.31,21.31,0,0,0,16.1-3.8l82,63.09Z" transform="translate(0)" style="fill:#ed2726"/></svg>