<svg id="Capa_1" data-name="Capa 1" xmlns="http://www.w3.org/2000/svg" viewBox="0 0 233.39 175.57"><path d="M225.89,59.67H7.5A7.5,7.5,0,0,0,0,67.17V197a7.5,7.5,0,0,0,7.5,7.5H225.89a7.5,7.5,0,0,0,7.5-7.5V67.17A7.5,7.5,0,0,0,225.89,59.67Zm-7.5,129.81H15V74.67H218.39Z" transform="translate(0 -28.91)" style="fill:#ed2726"/><path d="M35.18,139.57H78.25a7.5,7.5,0,0,0,0-15H35.18a7.5,7.5,0,0,0,0,15Z" transform="translate(0 -28.91)" style="fill:#ed2726"/><path d="M155.15,139.57h14v14a7.5,7.5,0,0,0,15,0v-14h14a7.5,7.5,0,0,0,0-15h-14v-14a7.5,7.5,0,0,0-15,0v14h-14a7.5,7.5,0,0,0,0,15Z" transform="translate(0 -28.91)" style="fill:#ed2726"/><path d="M35.18,43.91H78.25a7.5,7.5,0,1,0,0-15H35.18a7.5,7.5,0,0,0,0,15Z" transform="translate(0 -28.91)" style="fill:#ed2726"/><path d="M155.15,43.91h43.06a7.5,7.5,0,1,0,0-15H155.15a7.5,7.5,0,0,0,0,15Z" transform="translate(0 -28.91)" style="fill:#ed2726"/></svg>