<svg id="Capa_1" data-name="Capa 1" xmlns="http://www.w3.org/2000/svg" viewBox="0 0 234.41 173.05"><path d="M117.2,30.68a86.53,86.53,0,1,0,86.53,86.53A86.62,86.62,0,0,0,117.2,30.68Zm0,158a71.53,71.53,0,1,1,71.53-71.52A71.6,71.6,0,0,1,117.2,188.73Z" transform="translate(0 -30.68)" style="fill:#ed2726"/><path d="M44.9,44.9A7.5,7.5,0,0,0,34.29,34.29a117.39,117.39,0,0,0,0,165.83A7.5,7.5,0,1,0,44.9,189.51,102.37,102.37,0,0,1,44.9,44.9Z" transform="translate(0 -30.68)" style="fill:#ed2726"/><path d="M200.12,34.29A7.5,7.5,0,0,0,189.51,44.9a102.37,102.37,0,0,1,0,144.61,7.5,7.5,0,1,0,10.61,10.61A117.39,117.39,0,0,0,200.12,34.29Z" transform="translate(0 -30.68)" style="fill:#ed2726"/><path d="M117.2,140.21a7.5,7.5,0,0,0,7.5-7.5V68.83a7.5,7.5,0,0,0-15,0v63.88A7.5,7.5,0,0,0,117.2,140.21Z" transform="translate(0 -30.68)" style="fill:#ed2726"/><circle cx="117.2" cy="125.58" r="9.33" style="fill:#ed2726"/></svg>