<svg id="Layer_1" data-name="Layer 1" xmlns="http://www.w3.org/2000/svg" viewBox="0 0 491.52 409.6"><path d="M471,163.84H438.27c-8.19,0-16.38,6.14-20.48,14.34L399.36,260.1l-14.34-41c0-8.2-8.19-14.34-16.38-14.34h-41V184.32c0-12.29-8.19-20.48-20.48-20.48H81.92a20.52,20.52,0,0,0-20.48,20.48V348.16c0,2,0,6.14,2.05,8.19l28.67,61.44q6.15,12.29,18.43,12.29H358.4c8.19,0,14.34-4.1,18.43-10.24l18.43-30.72h6.15l18.43,49.15q6.15,12.28,18.43,12.29H471c12.29,0,20.48-8.19,20.48-20.48V184.32C491.52,172,483.33,163.84,471,163.84Zm-12.29,258-24.57-61.44c-4.1-6.15-10.24-12.29-20.48-12.29H380.93c-8.19,0-14.34,4.1-18.43,10.24l-16.39,30.72H124.93L102.4,344.06V204.8H286.72v20.48c0,12.29,8.19,20.48,20.48,20.48h47.1l8.2,26.62c2,8.2,10.24,14.34,18.43,14.34H413.7c8.19,0,16.38-6.14,20.48-14.34l24.57-81.92Z" transform="translate(0 -40.96)" style="fill:#f4b61a"/><path d="M81.92,266.24H20.48C8.19,266.24,0,274.43,0,286.72A20.52,20.52,0,0,0,20.48,307.2H81.92c12.29,0,20.48-8.19,20.48-20.48S94.21,266.24,81.92,266.24Z" transform="translate(0 -40.96)" style="fill:#f4b61a"/><path d="M20.48,225.28C8.19,225.28,0,233.47,0,245.76v81.92C0,340,8.19,348.16,20.48,348.16S41,340,41,327.68V245.76C41,233.47,32.77,225.28,20.48,225.28Z" transform="translate(0 -40.96)" style="fill:#f4b61a"/><path d="M245.76,102.4H163.84a20.52,20.52,0,0,0-20.48,20.48v61.44a20.52,20.52,0,0,0,20.48,20.48h81.92c12.29,0,20.48-8.19,20.48-20.48V122.88C266.24,110.59,258.05,102.4,245.76,102.4Zm-20.48,61.44h-41V143.36h41Z" transform="translate(0 -40.96)" style="fill:#f4b61a"/><path d="M286.72,41H122.88A20.52,20.52,0,0,0,102.4,61.44v61.44a20.52,20.52,0,0,0,20.48,20.48H286.72c12.29,0,20.48-8.19,20.48-20.48V61.44C307.2,49.15,299,41,286.72,41ZM266.24,102.4H143.36V81.92H266.24Z" transform="translate(0 -40.96)" style="fill:#f4b61a"/></svg>