<svg id="Capa_1" data-name="Capa 1" xmlns="http://www.w3.org/2000/svg" viewBox="0 0 191.85 164.82"><path d="M188.1,147.32a7.49,7.49,0,0,0-10.24,2.74,26.53,26.53,0,0,1-46,0,7.5,7.5,0,0,0-13,0,26.52,26.52,0,0,1-46,0,7.5,7.5,0,0,0-13,0,26.53,26.53,0,0,1-46,0,7.5,7.5,0,1,0-13,7.51A41.5,41.5,0,0,0,66.45,166a41.48,41.48,0,0,0,59,0,41.51,41.51,0,0,0,65.44-8.48A7.5,7.5,0,0,0,188.1,147.32Z" transform="translate(0 -13.51)" style="fill:#ed2726"/><path d="M131.89,115.35a7.5,7.5,0,1,0-13,7.51,41.52,41.52,0,0,0,71.93,0,7.5,7.5,0,1,0-13-7.51,26.54,26.54,0,0,1-46,0Z" transform="translate(0 -13.51)" style="fill:#ed2726"/><path d="M37,143.63a41.68,41.68,0,0,0,36-20.77,7.5,7.5,0,1,0-13-7.51,26.53,26.53,0,0,1-46,0,7.5,7.5,0,1,0-13,7.51A41.68,41.68,0,0,0,37,143.63Z" transform="translate(0 -13.51)" style="fill:#ed2726"/><path d="M96.1,155a19.89,19.89,0,0,0,7.5-38.32V101.12h25.47a7.5,7.5,0,0,0,0-15H103.6V73.36h25.47a7.5,7.5,0,0,0,0-15H103.6V45.59h25.47a7.5,7.5,0,0,0,0-15H103.6V21a7.5,7.5,0,1,0-15,0V116.7A19.89,19.89,0,0,0,96.1,155Z" transform="translate(0 -13.51)" style="fill:#ed2726"/></svg>