<svg id="Capa_1" data-name="Capa 1" xmlns="http://www.w3.org/2000/svg" viewBox="0 0 211.4 150.31"><path d="M182.33,49.81c-16.48-12.06-37-19.27-54.9-19.27S96.1,37.8,87.86,52.12C81.4,63.35,78.27,78.65,78.27,98.9s3.13,35.54,9.59,46.77c8.24,14.32,21.56,21.58,39.57,21.58S165.84,160,182.33,148c18.74-13.73,29.07-31.16,29.07-49.08S201.07,63.54,182.33,49.81Zm-8.86,86.07c-13.8,10.1-31.44,16.37-46,16.37-15.91,0-34.16-6.06-34.16-53.35s18.25-53.36,34.16-53.36c14.6,0,32.24,6.28,46,16.38C188,72.59,196.4,86.07,196.4,98.9S188,125.2,173.47,135.88Z" transform="translate(0 -30.54)" style="fill:#93c840"/><path d="M70.76,62.29A7.5,7.5,0,0,0,60.7,58.93L41.1,68.74C43.81,61.5,46.58,54,46.31,46.13a7.5,7.5,0,1,0-15,.52c.17,5-2,10.87-4.37,17.09a93.52,93.52,0,0,0-4.47,14.31L4.15,87.21a7.5,7.5,0,0,0,6.71,13.42l12.19-6.1a30,30,0,0,0,9.1,13.15l.17.15L4.15,121.92a7.5,7.5,0,0,0,3.36,14.21,7.59,7.59,0,0,0,3.35-.79l26.37-13.19c-.63,3.64-2.13,7.82-4,12.91-1,2.66-2.07,5.53-3,8.54l-26,13A7.5,7.5,0,1,0,10.86,170l17.37-8.68c.89,6,3.78,12,10.16,17.63a7.5,7.5,0,1,0,9.89-11.27c-4.77-4.19-6-8.39-5.19-13.79l24.32-12.16a7.5,7.5,0,1,0-6.71-13.42l-11.15,5.58c2-6,3.58-12.64,2.74-19.31l15.12-7.56a7.5,7.5,0,1,0-6.7-13.42l-14.39,7.19a35.93,35.93,0,0,0-4.27-4.43c-3.19-2.79-4.78-5.59-5.27-8.74L67.41,72.35A7.49,7.49,0,0,0,70.76,62.29Z" transform="translate(0 -30.54)" style="fill:#93c840"/></svg>