<svg id="Capa_1" data-name="Capa 1" xmlns="http://www.w3.org/2000/svg" viewBox="0 0 197.96 186.54"><path d="M227.25,74.3,192.08,39.13a7.5,7.5,0,0,0-10.61,10.6l22,22v84.45a13.3,13.3,0,0,1-26.6,0V135.53a28.36,28.36,0,0,0-20.8-27.29V49.48a28.05,28.05,0,0,0-28-28H76.82a28.05,28.05,0,0,0-28,28V193H39a7.5,7.5,0,0,0,0,15H165.87a7.5,7.5,0,0,0,0-15h-9.8V124.55a13.29,13.29,0,0,1,5.8,11v20.65a28.3,28.3,0,1,0,56.6,0V86.25a7.5,7.5,0,0,0,8.78-12ZM63.79,70.61h77.28v35.81H63.79Zm13-34.15H128a13,13,0,0,1,13,13v6.13H63.79V49.48A13,13,0,0,1,76.82,36.46ZM63.79,193V121.42h77.28V193Z" transform="translate(-31.49 -21.46)" style="fill:#f4b61a"/></svg>