<svg id="Capa_1" data-name="Capa 1" xmlns="http://www.w3.org/2000/svg" viewBox="0 0 212.67 186.3"><path d="M211.4,187.8,112.8,17a7.52,7.52,0,0,0-6.5-3.8A7.32,7.32,0,0,0,99.8,17L1,188.2a7.7,7.7,0,0,0,0,7.5,7.52,7.52,0,0,0,6.5,3.8H205.2a7.55,7.55,0,0,0,7.5-7.5A7.46,7.46,0,0,0,211.4,187.8ZM20.5,184.5,106.4,35.8l85.9,148.7Z" transform="translate(-0.03 -13.2)" style="fill:#f4b61a"/><path d="M98.8,76.6v63.9a7.5,7.5,0,0,0,15,0V76.6a7.5,7.5,0,0,0-15,0Z" transform="translate(-0.03 -13.2)" style="fill:#f4b61a"/><circle cx="106.28" cy="150.8" r="9.3" style="fill:#f4b61a"/></svg>