<svg id="Capa_1" data-name="Capa 1" xmlns="http://www.w3.org/2000/svg" viewBox="0 0 211.4 136.8"><path d="M182.3,56.6c-16.5-12.1-37-19.3-54.9-19.3S96.1,44.6,87.8,58.9c-6.5,11.2-9.6,26.5-9.6,46.8s3.1,35.5,9.6,46.8c8.2,14.3,21.6,21.6,39.6,21.6s38.4-7.2,54.9-19.3c18.7-13.7,29.1-31.2,29.1-49.1S201.1,70.3,182.3,56.6Zm-8.8,86.1c-13.8,10.1-31.4,16.4-46,16.4-15.9,0-34.2-6.1-34.2-53.4s18.3-53.4,34.2-53.4c14.6,0,32.2,6.3,46,16.4,14.6,10.7,22.9,24.1,22.9,37S188,132,173.5,142.7Z" transform="translate(0 -37.3)" style="fill:#3f97d3"/><path d="M64.1,44.9H7.5a7.5,7.5,0,0,0,0,15H64.1a7.5,7.5,0,0,0,0-15Z" transform="translate(0 -37.3)" style="fill:#3f97d3"/><path d="M64.1,72.3H7.5a7.5,7.5,0,0,0,0,15H64.1a7.5,7.5,0,0,0,0-15Z" transform="translate(0 -37.3)" style="fill:#3f97d3"/><path d="M64.1,99.7H7.5a7.5,7.5,0,0,0,0,15H64.1a7.5,7.5,0,0,0,0-15Z" transform="translate(0 -37.3)" style="fill:#3f97d3"/><path d="M64.1,127H7.5a7.5,7.5,0,0,0,0,15H64.1a7.5,7.5,0,0,0,0-15Z" transform="translate(0 -37.3)" style="fill:#3f97d3"/><path d="M64.1,154.4H7.5a7.5,7.5,0,0,0,0,15H64.1a7.5,7.5,0,0,0,0-15Z" transform="translate(0 -37.3)" style="fill:#3f97d3"/></svg>