<svg id="Capa_1" data-name="Capa 1" xmlns="http://www.w3.org/2000/svg" viewBox="0 0 211.4 160.29"><path d="M182.33,44.82c-16.48-12.06-37-19.27-54.9-19.27S96.1,32.81,87.86,47.14c-6.45,11.22-9.59,26.51-9.59,46.77s3.14,35.55,9.59,46.77c8.25,14.32,21.56,21.58,39.57,21.58s38.42-7.2,54.9-19.27c18.74-13.73,29.07-31.16,29.07-49.08S201.07,58.55,182.33,44.82Zm-8.87,86.06c-13.79,10.1-31.43,16.38-46,16.38-15.91,0-34.16-6.06-34.16-53.36s18.25-53.35,34.16-53.35c14.6,0,32.24,6.28,46,16.38C188,67.6,196.4,81.07,196.4,93.9S188,120.21,173.46,130.88Z" transform="translate(0 -25.55)" style="fill:#92c83e"/><path d="M60.7,33.94,4.15,62.22A7.5,7.5,0,0,0,7.51,76.43a7.59,7.59,0,0,0,3.35-.79L67.41,47.36A7.5,7.5,0,1,0,60.7,33.94Z" transform="translate(0 -25.55)" style="fill:#92c83e"/><path d="M60.7,61.3,4.15,89.57A7.5,7.5,0,0,0,10.86,103L67.41,74.71A7.5,7.5,0,1,0,60.7,61.3Z" transform="translate(0 -25.55)" style="fill:#92c83e"/><path d="M60.7,88.65,4.15,116.93a7.5,7.5,0,1,0,6.71,13.41l56.55-28.27A7.5,7.5,0,1,0,60.7,88.65Z" transform="translate(0 -25.55)" style="fill:#92c83e"/><path d="M60.7,116,4.15,144.28a7.5,7.5,0,0,0,6.71,13.42l56.55-28.28A7.5,7.5,0,1,0,60.7,116Z" transform="translate(0 -25.55)" style="fill:#92c83e"/><path d="M60.7,143.36,4.15,171.64a7.5,7.5,0,1,0,6.71,13.41l56.55-28.27a7.5,7.5,0,1,0-6.71-13.42Z" transform="translate(0 -25.55)" style="fill:#92c83e"/></svg>