<?xml version="1.0" encoding="iso-8859-1"?>
<!-- Generator: Adobe Illustrator 19.0.0, SVG Export Plug-In . SVG Version: 6.00 Build 0)  -->
<svg version="1.1" id="Layer_1" xmlns="http://www.w3.org/2000/svg" xmlns:xlink="http://www.w3.org/1999/xlink" x="0px" y="0px"
	 viewBox="0 0 491.522 491.522" style="enable-background:new 0 0 491.522 491.522;" xml:space="preserve">
<g>
	<g>
		<g>
			<path d="M456.561,198.808c7.998,7.998,20.965,7.998,28.963,0s7.998-20.965,0-28.963l-20.48-20.48
				c-7.203-7.203-18.606-8.017-26.759-1.91l-18.761,14.052l-122.458,56.873l-18.582-42.295c-3.268-7.439-10.625-12.242-18.75-12.242
				H81.926c-5.866,0-11.142,2.48-14.875,6.432l-35.208-23.472c-9.411-6.274-22.127-3.731-28.401,5.68
				c-6.274,9.411-3.731,22.127,5.68,28.401l52.324,34.883v111.917c0,11.311,9.169,20.48,20.48,20.48h252.047
				c6.946,0,13.419-3.521,17.193-9.352l94.124-145.427l3.342-2.503L456.561,198.808z M322.833,307.202H102.406v-102.4h143.956
				L267.976,254c4.617,10.508,16.967,15.172,27.377,10.337l78.958-36.67L322.833,307.202z"/>
			<path d="M471.042,225.282c-11.311,0-20.48,9.169-20.48,20.48v20.48c0,11.311,9.169,20.48,20.48,20.48s20.48-9.169,20.48-20.48
				v-20.48C491.522,234.451,482.353,225.282,471.042,225.282z"/>
		</g>
	</g>
</g>
<g>
</g>
<g>
</g>
<g>
</g>
<g>
</g>
<g>
</g>
<g>
</g>
<g>
</g>
<g>
</g>
<g>
</g>
<g>
</g>
<g>
</g>
<g>
</g>
<g>
</g>
<g>
</g>
<g>
</g>
</svg>
