<svg id="Layer_1" data-name="Layer 1" xmlns="http://www.w3.org/2000/svg" viewBox="0 0 491.52 204.8"><path d="M456.56,198.81a20.48,20.48,0,0,0,29-29L465,149.37a20.46,20.46,0,0,0-26.75-1.91l-18.77,14L297.07,218.38l-18.59-42.29a20.47,20.47,0,0,0-18.75-12.25H81.93a20.38,20.38,0,0,0-14.88,6.44L31.84,146.8A20.48,20.48,0,0,0,9.12,180.88l52.33,34.89V327.68a20.48,20.48,0,0,0,20.48,20.48H334a20.5,20.5,0,0,0,17.2-9.35l94.12-145.42,3.34-2.51ZM322.83,307.2H102.41V204.8h144L268,254a20.47,20.47,0,0,0,27.37,10.34l79-36.67Z" transform="translate(0 -143.36)" style="fill:#ed2726"/><path d="M471,225.28a20.48,20.48,0,0,0-20.48,20.48v20.48a20.48,20.48,0,1,0,41,0V245.76A20.48,20.48,0,0,0,471,225.28Z" transform="translate(0 -143.36)" style="fill:#ed2726"/></svg>