<svg id="Layer_1" data-name="Layer 1" xmlns="http://www.w3.org/2000/svg" viewBox="0 0 512.01 374.54"><path d="M437,75a21.33,21.33,0,1,0-30.17,30.17c83.32,83.32,83.32,218.4,0,301.69A21.33,21.33,0,1,0,437,437C537,337.06,537,175,437,75Z" transform="translate(0 -68.74)" style="fill:#ee2424"/><path d="M105.15,105.17A21.33,21.33,0,1,0,75,75C-25,175-25,337,75,437a21.33,21.33,0,0,0,30.17-30.17C21.84,323.54,21.84,188.46,105.15,105.17Z" transform="translate(0 -68.74)" style="fill:#ee2424"/><path d="M256,85.34A170.67,170.67,0,1,0,426.67,256,170.67,170.67,0,0,0,256,85.34ZM256,384A128,128,0,1,1,384,256,128,128,0,0,1,256,384Z" transform="translate(0 -68.74)" style="fill:#ee2424"/><path d="M277.34,149.34H234.67a21.33,21.33,0,0,0-21.33,21.33V341.34a21.33,21.33,0,0,0,42.66,0v-64h21.34a64,64,0,1,0,0-128Zm0,85.33H256V192h21.33a21.34,21.34,0,0,1,0,42.67Z" transform="translate(0 -68.74)" style="fill:#ee2424"/></svg>