<svg id="Layer_1" data-name="Layer 1" xmlns="http://www.w3.org/2000/svg" viewBox="0 0 511.98 512"><path d="M397.33,162,350,114.66a16.77,16.77,0,0,0-23.72,0l-49.83,49.82a16.77,16.77,0,0,0,0,23.72l47.36,47.36a16.78,16.78,0,0,0,23.73,0l49.82-49.82A16.77,16.77,0,0,0,397.33,162Zm-61.69,38L312,176.34l26.11-26.1,23.64,23.64Z" transform="translate(-0.01)" style="fill:#ed2726"/><path d="M512,92.44a32.65,32.65,0,0,0-9.63-23.24L442.79,9.63a32.87,32.87,0,0,0-46.49,0l-47.6,47.6a40.78,40.78,0,0,0-40.82,10.18l-92,92a40.79,40.79,0,0,0,0,57.72l79,79a40.79,40.79,0,0,0,57.72,0l92-92a40.8,40.8,0,0,0,10.18-40.83l47.6-47.6A32.63,32.63,0,0,0,512,92.44Zm-91.13,87.94-92,92a7.27,7.27,0,0,1-10.28,0l-79-79a7.25,7.25,0,0,1,0-10.27l92-92a7.28,7.28,0,0,1,10.28,0c9.65,9.65,69.78,69.77,79,79A7.26,7.26,0,0,1,420.86,180.38ZM434.4,136.2,375.78,77.59l43.77-43.76,58.61,58.61Z" transform="translate(-0.01)" style="fill:#ed2726"/><path d="M267.91,294.24l-50.16-50.16a28.8,28.8,0,0,0-40.76,0l-28,28c-6.42-6.42-13.76-10-22.88-10a31,31,0,0,0-22.05,9.13L60.59,314.7A31.22,31.22,0,0,0,54.92,351l-45.3,45.3a32.91,32.91,0,0,0,0,46.48L69.2,502.36a32.84,32.84,0,0,0,46.48,0L161,457.08a31.18,31.18,0,0,0,36.33-5.68l43.47-43.48a31.2,31.2,0,0,0,0-44.09l-.83-.84,28-28A28.8,28.8,0,0,0,267.91,294.24ZM92.44,478.16,33.82,419.55l43.76-43.76L136.2,434.4Zm111.91-127a16.76,16.76,0,0,0,0,23.72l11,11L175.24,426,86,336.75l40.13-40.13,11,11a16.77,16.77,0,0,0,23.72,0l36.51-36.51,43.48,43.49Z" transform="translate(-0.01)" style="fill:#ed2726"/><path d="M184.67,371.64l-43.39-43.39A16.77,16.77,0,0,0,117.56,352L161,395.36a16.77,16.77,0,1,0,23.72-23.72Z" transform="translate(-0.01)" style="fill:#ed2726"/></svg>